<?xml version="1.0" encoding="utf-8"?>
<!-- Generator: Adobe Illustrator 19.1.0, SVG Export Plug-In . SVG Version: 6.00 Build 0)  -->
<svg version="1.1" id="logo" xmlns="http://www.w3.org/2000/svg" xmlns:xlink="http://www.w3.org/1999/xlink" x="0px" y="0px"
	 viewBox="-114 349.6 382.6 94.4" style="enable-background:new -114 349.6 382.6 94.4;" xml:space="preserve">
<g>
	<g>
		<path d="M-78.2,416.6c-2.5-2.4-4-5.8-4-10l0,0c0-4.1,1.5-7.6,4-10l0,0c2.5-2.4,6-3.7,10-3.7l0,0c4,0,7.7,0.9,10.3,3.4l0,0l0.4,0.3
			l-4.6,5l-0.4-0.4c-1.4-1.5-3-2.2-5.7-2.2l0,0c-4.4,0-7.3,3.1-7.3,7.6l0,0c0,4.5,2.8,7.6,7.3,7.6l0,0c2.1,0,3.7-0.5,4.7-1l0,0v-3.3
			H-68v-5.6v-0.5h10.8v13.9l-0.3,0.1c-3.3,1.7-7,2.5-10.7,2.5l0,0C-72.1,420.3-75.7,419-78.2,416.6L-78.2,416.6z M-81.2,406.6
			c0,7.8,5.4,12.6,13,12.7l0,0c3.5,0,6.9-0.7,10-2.2l0,0v-12.3H-67v4.1h4.5v4.9l-0.3,0.1c-1.1,0.6-2.9,1.3-5.4,1.3l0,0
			c-2.5,0-4.6-0.9-6-2.4l0,0c-1.5-1.5-2.3-3.7-2.3-6.1l0,0c0-2.4,0.8-4.6,2.3-6.1l0,0c1.5-1.5,3.5-2.4,6-2.4l0,0
			c2.7,0,4.6,0.7,6.1,2.2l0,0l3.2-3.5c-2.4-2-5.6-2.8-9.3-2.8l0,0C-75.7,394-81.1,398.9-81.2,406.6L-81.2,406.6z M-67.4,404.8v-0.5
			V404.8L-67.4,404.8z M-90.6,419.7h-0.5v-26.1h6.5v26.1H-90.6L-90.6,419.7z M-85.5,418.7v-24.1H-90v24.1H-85.5L-85.5,418.7z
			 M-114,419.7v-26.1h9.8c2.2,0,4.6,0.2,6.5,1.2l0,0c1.9,1,3.2,2.8,3.2,5.7l0,0c0,2.5-1.3,4.4-3.3,5.4l0,0c2.7,0.9,4.5,3.3,4.5,6.3
			l0,0c0,2.8-1.4,4.7-3.3,5.9l0,0c-1.9,1.2-4.3,1.6-6.6,1.6l0,0H-114L-114,419.7z M-113,418.7h9.8c2.2,0,4.4-0.4,6.1-1.5l0,0
			c1.7-1,2.8-2.6,2.8-5l0,0c0-3-2-5.2-5.1-5.6l0,0l0.1-0.5l0,0l0,0l-0.1,0.5l-0.4-0.1v-0.4v-0.5l0.3-0.1c2.4-0.8,4-2.5,4-5l0,0
			c0-2.6-1.1-3.9-2.7-4.8l0,0c-1.6-0.8-3.8-1.1-6-1.1l0,0h-8.8V418.7L-113,418.7z M-108.5,415v-6.7h4.7c0.9,0,2.1,0.1,3.1,0.5l0,0
			c1,0.4,1.9,1.3,1.8,2.7l0,0c0,1.2-0.6,2.2-1.4,2.7l0,0c-0.8,0.5-1.8,0.7-2.8,0.7l0,0v-0.5v-0.5c1.6,0,3.2-0.6,3.2-2.4l0,0
			c0-1-0.5-1.4-1.3-1.8l0,0c-0.8-0.3-1.8-0.5-2.7-0.4l0,0h-3.6v4.7h4.5v0.5v0.5H-108.5L-108.5,415z M-108.5,404.6v-5.8v-0.5h4.3
			c0.9,0,1.9,0.1,2.8,0.6l0,0c0.8,0.4,1.5,1.3,1.5,2.5l0,0c0,1.2-0.5,2-1.3,2.5l0,0c-0.9,0.5-1.9,0.7-2.8,0.7l0,0H-108.5
			L-108.5,404.6z M-107.5,403.6h3.5c1.6,0,3-0.6,3-2.2l0,0c0-0.9-0.4-1.3-0.9-1.7l0,0c-0.6-0.3-1.5-0.5-2.3-0.5l0,0h-3.3V403.6
			L-107.5,403.6z"/>
		<path d="M64,416.6c-2.5-2.4-4-5.8-4-10l0,0c0-4.1,1.5-7.6,4-10l0,0c2.5-2.4,6-3.7,10-3.7l0,0c4,0,7.7,0.9,10.3,3.4l0,0l0.4,0.3
			l-4.6,5l-0.4-0.4c-1.4-1.5-3-2.2-5.7-2.2l0,0c-4.4,0-7.3,3.1-7.3,7.6l0,0c0,4.5,2.8,7.6,7.3,7.6l0,0c2.1,0,3.7-0.5,4.7-1l0,0v-3.3
			h-4.5v-5.6v-0.5H85v13.9l-0.3,0.1c-3.3,1.7-7,2.5-10.7,2.5l0,0C70.1,420.3,66.5,419,64,416.6L64,416.6z M61,406.6
			c0,7.8,5.4,12.6,13,12.7l0,0c3.5,0,6.9-0.7,10-2.2l0,0v-12.3h-8.8v4.1h4.5v4.9l-0.3,0.1c-1.1,0.6-2.9,1.3-5.4,1.3l0,0
			c-2.5,0-4.6-0.9-6-2.4l0,0c-1.5-1.5-2.3-3.7-2.3-6.1l0,0c0-2.4,0.8-4.6,2.3-6.1l0,0c1.5-1.5,3.5-2.4,6-2.4l0,0
			c2.7,0,4.6,0.7,6.1,2.2l0,0l3.2-3.5c-2.4-2-5.6-2.8-9.3-2.8l0,0C66.5,394,61.1,398.9,61,406.6L61,406.6z M74.8,404.8v-0.5V404.8
			L74.8,404.8z M51.6,419.7h-0.5v-26.1h6.5v26.1H51.6L51.6,419.7z M56.7,418.7v-24.1h-4.5v24.1H56.7L56.7,418.7z M28.2,419.7v-26.1
			H38c2.2,0,4.6,0.2,6.5,1.2l0,0c1.9,1,3.2,2.8,3.2,5.7l0,0c0,2.5-1.3,4.4-3.3,5.4l0,0c2.7,0.9,4.5,3.3,4.5,6.3l0,0
			c0,2.8-1.4,4.7-3.3,5.9l0,0c-1.9,1.2-4.3,1.6-6.6,1.6l0,0H28.2L28.2,419.7z M29.2,418.7H39c2.2,0,4.4-0.4,6.1-1.5l0,0
			c1.7-1,2.8-2.6,2.8-5l0,0c0-3-2-5.2-5.1-5.6l0,0l0.1-0.5l0,0l0,0l-0.1,0.5l-0.4-0.1v-0.4v-0.5l0.3-0.1c2.4-0.8,4-2.5,4-5l0,0
			c0-2.6-1.1-3.9-2.7-4.8l0,0c-1.6-0.8-3.8-1.1-6-1.1l0,0h-8.8L29.2,418.7L29.2,418.7z M33.7,415v-6.7h4.7c0.9,0,2.1,0.1,3.1,0.5
			l0,0c1,0.4,1.9,1.3,1.9,2.7l0,0c0,1.2-0.6,2.2-1.4,2.7l0,0c-0.8,0.5-1.8,0.7-2.8,0.7l0,0v-0.5v-0.5c1.6,0,3.2-0.6,3.2-2.4l0,0
			c0-1-0.5-1.4-1.3-1.8l0,0c-0.8-0.3-1.8-0.5-2.7-0.4l0,0h-3.7v4.7h4.5v0.5v0.5H33.7L33.7,415z M33.7,404.6v-5.8v-0.5H38
			c0.9,0,1.9,0.1,2.8,0.6l0,0c0.8,0.4,1.5,1.3,1.5,2.5l0,0c0,1.2-0.5,2-1.3,2.5l0,0c-0.8,0.5-1.7,0.7-2.6,0.7l0,0H33.7L33.7,404.6z
			 M34.7,403.6h3.5c1.6,0,3-0.6,3-2.2l0,0c0-0.9-0.4-1.3-0.9-1.7l0,0c-0.6-0.3-1.5-0.5-2.3-0.5l0,0h-3.3V403.6L34.7,403.6z"/>
		<path d="M109.4,414.9c3.4-1.5,5-5,5-8.5c0-7.5-5.9-12.9-13.4-12.9s-13.4,5.3-13.4,12.9c0,8.1,5.8,12.9,13.6,12.9h15.2v-4.2
			L109.4,414.9L109.4,414.9z M101,414.1c-4.2,0-7.7-3.4-7.7-7.8c0-4.3,3.4-7.8,7.7-7.8c4.2,0,7.7,3.4,7.7,7.8
			C108.6,410.6,105.2,414.1,101,414.1z M133.1,409.3c0,3.1-2.1,5.4-5,5.4s-5.1-2.3-5.1-5.4v-15.2h-5.5v15.4
			c0,5.9,3.6,10.3,10.6,10.3c6.9,0,10.6-4.4,10.6-10.3v-15.4h-5.5v15.2H133.1z M149,409h10.9v-5.1H149v-4.7h11.5v-5.1h-17v25.1h17.7
			v-5.1H149V409z M169.9,401.2c0-1.9,2.2-2.6,3.7-2.6c1.3,0,3.1,0.5,4,1.7l3.8-4.1c-2.1-1.9-4.9-2.6-7.7-2.6c-4.9,0-9.6,2.8-9.6,8.1
			c0,8.4,11.8,5.9,11.8,10.5c0,1.8-2,2.6-3.8,2.6s-3.7-0.9-4.8-2.4l-3.9,4.3c2.4,2.2,5.2,3.2,8.4,3.2c5.2,0,9.7-2.7,9.7-8.3
			C181.5,402.8,169.9,405.7,169.9,401.2z M183.3,399h7.2v20.2h5.5V399h7.2v-4.9h-19.8v4.9H183.3z M205.4,419.2h5.5v-25.1h-5.5V419.2
			z M227.9,393.5c-7.8,0-13.5,5.1-13.5,13.2c0,8,5.7,13.2,13.5,13.2s13.5-5.1,13.5-13.2S235.7,393.5,227.9,393.5z M227.9,414.7
			c-4.7,0-7.8-3.4-7.8-8.1c0-4.7,3.1-8.1,7.8-8.1c4.7,0,7.8,3.4,7.8,8.1C235.6,411.3,232.6,414.7,227.9,414.7z M263.1,394.1v17.4
			H263l-10.7-17.4h-7.5v25.1h5.5v-17.9h0.1l10.9,17.8h7.2v-25H263.1z"/>
		<path d="M-40.7,414.7c-4,0-7.1-3.4-7.1-8.1c0-4.7,3.1-8.1,7.3-8.1c2.1,0,3.6,0.7,4.7,2.1l4.2-3.5c-2.1-2.7-5.7-3.7-8.5-3.7
			c-7.8,0-13.5,5.1-13.5,13.2c0,8,5.7,13.2,13.5,13.2c3.4,0,7-1.4,9.1-4.4l-4.6-3.4C-36.7,413.7-38.5,414.7-40.7,414.7z M-20.2,399
			h7.2v20.2h5.5V399h7.2v-4.9h-19.9V399z M18.3,394.1l-5.6,9.4l-5.3-9.4H0.5l9.4,14.4v10.7h5.5v-10.7l9.4-14.4H18.3z M-22.1,374.6
			l-1.9-1.2v-1.1c0-0.1-0.8-0.4-0.8-0.4l-0.1-7.7c1.3-1-0.2-1.8-0.2-1.8l-0.4-12.8h-0.4l-0.5,12.8c-1.5,0.7-0.3,1.7-0.3,1.7v7.7
			c-0.3,0-0.5,0.2-0.5,0.2l-0.3,1.2l-2,1.4v1l-1.3,1l0.1,2.9l0.2,0.2v1.4c0.2,0.7,1.6,1.4,2.5,1.7l-1,36.4h6.5l-1-36.3
			c1.5-0.4,2.4-1.7,2.4-1.7l0.1-1.4l0.2-0.2l0.1-2.9l-1.3-1.1L-22.1,374.6z"/>
	</g>
	<path id="tagline" d="M-108.2,426.5l-5.8,13.1h2.1l1.3-3.2h6.2l1.3,3.2h2.1l-5.6-13.1H-108.2z M-110,434.8l2.5-6l0,0l2.4,6H-110z
		 M-95.7,434.5c-0.7-0.2-2.2-0.3-2.2-1.4c0-0.6,0.7-1,1.5-1s1.4,0.4,1.8,0.9l1.3-1c-0.6-1-1.8-1.4-3-1.4c-1.6,0-3.3,0.9-3.3,2.7
		c0,1.7,1.3,2.1,2.7,2.5c0.7,0.2,2.1,0.4,2.1,1.4c0,0.8-0.9,1.1-1.8,1.1c-1,0-1.6-0.5-2.1-1l-1.3,1c0.9,1.2,1.9,1.6,3.4,1.6
		c1.7,0,3.6-0.8,3.6-2.8C-93.2,435.4-94.3,434.9-95.7,434.5z M-83.4,430.8h-2.3l-3.8,3.8v-9h-1.7v14h1.7V435l4.1,4.6h2.4l-4.4-4.8
		L-83.4,430.8z M-81.4,439.6h1.7v-8.8h-1.7V439.6z M-80.6,426.5c-0.7,0-1.2,0.6-1.2,1.2c0,0.7,0.6,1.2,1.2,1.2
		c0.7,0,1.2-0.6,1.2-1.2C-79.4,427-79.9,426.5-80.6,426.5z M-72.5,430.6c-1.4,0-2.5,0.6-2.9,1.6l0,0v-1.4h-1.7v8.8h1.7v-4.5
		c0-2,1.1-2.9,2.4-2.9c1.1,0,2,0.6,2,2.3v5.1h1.7V434C-69.3,431.6-70.8,430.6-72.5,430.6z M-59.7,432.1L-59.7,432.1
		c-0.7-0.9-1.9-1.5-3.1-1.5c-2.7,0-4.5,2-4.5,4.6c0,2.6,1.9,4.5,4.5,4.5c1.2,0,2.4-0.5,3-1.6h0.1v1.3c0,1.5-0.7,3-3.2,3
		c-1.3,0-2.3-0.5-3.1-1.4l-1.1,1.4c1.2,1.1,2.6,1.6,4.3,1.6c2.9,0,4.8-1.9,4.8-4.5v-8.7h-1.7V432.1z M-62.6,438.2
		c-1.8,0-2.9-1.2-2.9-2.9c0-1.8,1.1-3.1,2.9-3.1c1.8,0,2.9,1.3,2.9,3.1C-59.7,437-60.8,438.2-62.6,438.2z M-50.2,439.6h1.7v-14h-1.7
		V439.6z M-38.8,433.5c0-1.5-1.1-2.9-3.7-2.9c-1.2,0-2.6,0.4-3.5,1.3l1,1c0.6-0.5,1.2-1,2.5-1c1.4,0,2.1,0.9,2.1,1.9v0.4h-1.2
		c-2.7,0-4.8,0.8-4.8,3c0,1.7,1.4,2.6,3,2.6c1.3,0,2.3-0.4,3.1-1.6l0,0c0,0.4,0,0.9,0.1,1.3h1.5c-0.1-0.5-0.1-1-0.1-1.6V433.5z
		 M-40.4,435.9c0,1.2-0.6,2.6-2.5,2.6c-1.1,0-1.9-0.4-1.9-1.4c0-1.4,1.9-1.7,3.5-1.7h0.9V435.9z M-34.6,432.2L-34.6,432.2v-1.4h-1.7
		v8.8h1.7v-4.4c0-1.9,0.9-2.8,2.5-2.8c0.3,0,0.5,0.1,0.8,0.1l0.1-1.8c-0.2-0.1-0.5-0.1-0.8-0.1C-33.1,430.6-34.2,431.3-34.6,432.2z
		 M-22.5,432.1L-22.5,432.1c-0.7-0.9-1.9-1.5-3.1-1.5c-2.7,0-4.5,2-4.5,4.6c0,2.6,1.9,4.5,4.5,4.5c1.2,0,2.4-0.5,3-1.6h0.1v1.3
		c0,1.5-0.7,3-3.2,3c-1.3,0-2.3-0.5-3.1-1.4l-1.2,1.5c1.2,1.1,2.6,1.6,4.3,1.6c2.9,0,4.8-1.9,4.8-4.5v-8.7h-1.7L-22.5,432.1
		L-22.5,432.1z M-25.4,438.2c-1.8,0-2.9-1.2-2.9-2.9c0-1.8,1.1-3.1,2.9-3.1s2.9,1.3,2.9,3.1C-22.5,437-23.7,438.2-25.4,438.2z
		 M-14.3,430.6c-2.6,0-4.5,2-4.5,4.6c0,2.6,1.7,4.6,4.5,4.6c1.7,0,3-0.6,3.9-1.8l-1.3-1c-0.6,0.8-1.4,1.3-2.4,1.3c-1.5,0-3-1-3-2.6
		h7v-0.6C-10,433-11.2,430.6-14.3,430.6z M-17,434.5c0-1.2,1.1-2.6,2.7-2.6c1.7,0,2.5,1.1,2.5,2.6H-17z M-6.2,432.2L-6.2,432.2v-1.4
		h-1.7v8.8h1.7v-4.4c0-1.9,0.9-2.8,2.5-2.8c0.3,0,0.5,0.1,0.8,0.1l0.1-1.8c-0.2-0.1-0.5-0.1-0.7-0.1C-4.6,430.6-5.8,431.3-6.2,432.2
		z M6.4,436.2v-4h2.4v-1.4H6.4v-2.5H4.7v2.5H2.8v1.4h1.9v4.6c0,1.4,0,3,2.6,3c0.3,0,1.1-0.1,1.5-0.3V438c-0.3,0.2-0.8,0.3-1.2,0.3
		C6.4,438.3,6.4,437.2,6.4,436.2z M15.4,430.6c-1.4,0-2.5,0.6-2.9,1.6l0,0v-6.6h-1.7v14h1.7v-4.5c0-2,1.1-2.9,2.4-2.9
		c1.1,0,2,0.6,2,2.3v5.1h1.7V434C18.6,431.6,17.1,430.6,15.4,430.6z M28.2,433.5c0-1.5-1.1-2.9-3.7-2.9c-1.2,0-2.6,0.4-3.5,1.3l1,1
		c0.6-0.5,1.2-1,2.5-1c1.4,0,2.1,0.9,2.1,1.9v0.4h-1.2c-2.7,0-4.8,0.8-4.8,3c0,1.7,1.4,2.6,3,2.6c1.3,0,2.3-0.4,3.1-1.6l0,0
		c0,0.4,0,0.9,0.1,1.3h1.5c-0.1-0.5-0.1-1-0.1-1.6L28.2,433.5L28.2,433.5z M26.6,435.9c0,1.2-0.6,2.6-2.5,2.6
		c-1.1,0-1.9-0.4-1.9-1.4c0-1.4,1.9-1.7,3.5-1.7h0.9V435.9z M35.3,430.6c-1.4,0-2.5,0.6-2.9,1.6l0,0v-1.4h-1.7v8.8h1.7v-4.5
		c0-2,1.1-2.9,2.4-2.9c1.1,0,2,0.6,2,2.3v5.1h1.7V434C38.5,431.6,37,430.6,35.3,430.6z M46.3,439.6H48v-14h-1.7V439.6z M50.7,439.6
		h1.7v-8.8h-1.7V439.6z M51.5,426.5c-0.7,0-1.2,0.6-1.2,1.2c0,0.7,0.6,1.2,1.2,1.2c0.7,0,1.2-0.6,1.2-1.2
		C52.7,427,52.2,426.5,51.5,426.5z M55.7,428.9v2h-1.9v1.4h1.9v7.3h1.7v-7.3h2v-1.4h-2v-2c0-1.2,0.2-2,1.4-2c0.3,0,0.6,0,0.9,0.2
		l0.2-1.5c-0.5-0.1-0.9-0.1-1.2-0.1C56.5,425.4,55.7,426.5,55.7,428.9z M65,430.6c-2.6,0-4.5,2-4.5,4.6c0,2.6,1.7,4.6,4.5,4.6
		c1.7,0,3-0.6,3.9-1.8l-1.3-1c-0.6,0.8-1.4,1.3-2.4,1.3c-1.5,0-3-1-3-2.6h7v-0.6C69.2,433,68.1,430.6,65,430.6z M62.2,434.5
		c0-1.2,1.1-2.6,2.7-2.6c1.7,0,2.5,1.1,2.5,2.6H62.2z M83.5,432.1L83.5,432.1c-0.7-0.9-1.9-1.5-3.1-1.5c-2.7,0-4.5,2-4.5,4.6
		c0,2.6,1.8,4.6,4.5,4.6c1.3,0,2.5-0.6,3.1-1.5l0,0v5.5h1.7v-13h-1.7V432.1z M80.6,438.3c-1.8,0-2.9-1.3-2.9-3.1
		c0-1.8,1.1-3.1,2.9-3.1c1.8,0,2.9,1.3,2.9,3.1S82.4,438.3,80.6,438.3z M93.9,435.3c0,2-1.1,2.9-2.4,2.9c-1.1,0-2-0.6-2-2.3v-5.2
		h-1.7v5.6c0,2.3,1.5,3.3,3.2,3.3c1.4,0,2.5-0.6,2.9-1.6l0,0v1.6h1.7v-8.8h-1.7V435.3z M102.2,430.6c-2.6,0-4.5,2-4.5,4.6
		c0,2.6,1.7,4.6,4.5,4.6c1.7,0,3-0.6,3.9-1.8l-1.3-1c-0.6,0.8-1.4,1.3-2.4,1.3c-1.5,0-3-1-3-2.6h7v-0.6
		C106.4,433,105.2,430.6,102.2,430.6z M99.4,434.5c0-1.2,1.1-2.6,2.7-2.6c1.7,0,2.5,1.1,2.5,2.6H99.4z M112.1,434.5
		c-0.7-0.2-2.2-0.3-2.2-1.4c0-0.6,0.7-1,1.5-1s1.4,0.4,1.8,0.9l1.3-1c-0.6-1-1.8-1.4-3-1.4c-1.6,0-3.3,0.9-3.3,2.7
		c0,1.7,1.3,2.1,2.7,2.5c0.7,0.2,2.1,0.4,2.1,1.4c0,0.8-0.9,1.1-1.8,1.1c-1,0-1.6-0.5-2.1-1l-1.3,1c0.9,1.2,1.9,1.6,3.4,1.6
		c1.7,0,3.6-0.8,3.6-2.8C114.7,435.4,113.5,434.9,112.1,434.5z M119.3,436.2v-4h2.4v-1.4h-2.4v-2.5h-1.7v2.5h-1.9v1.4h1.9v4.6
		c0,1.4,0,3,2.6,3c0.3,0,1.1-0.1,1.5-0.3V438c-0.3,0.2-0.8,0.3-1.2,0.3C119.3,438.3,119.3,437.2,119.3,436.2z M123.6,439.6h1.7v-8.8
		h-1.7V439.6z M124.5,426.5c-0.7,0-1.2,0.6-1.2,1.2c0,0.7,0.6,1.2,1.2,1.2c0.7,0,1.2-0.6,1.2-1.2C125.7,427,125.1,426.5,124.5,426.5
		z M132.1,430.6c-2.6,0-4.7,2.1-4.7,4.6c0,2.6,2.1,4.6,4.7,4.6s4.7-2.1,4.7-4.6C136.7,432.7,134.7,430.6,132.1,430.6z M132.1,438.3
		c-1.8,0-2.9-1.3-2.9-3.1c0-1.8,1.1-3.1,2.9-3.1c1.8,0,2.9,1.3,2.9,3.1S133.9,438.3,132.1,438.3z M143.4,430.6
		c-1.4,0-2.5,0.6-2.9,1.6l0,0v-1.4h-1.7v8.8h1.7v-4.5c0-2,1.1-2.9,2.4-2.9c1.1,0,2,0.6,2,2.3v5.1h1.7V434
		C146.6,431.6,145.2,430.6,143.4,430.6z M152.8,434.5c-0.7-0.2-2.2-0.3-2.2-1.4c0-0.6,0.7-1,1.5-1s1.4,0.4,1.8,0.9l1.3-1
		c-0.6-1-1.8-1.4-3-1.4c-1.6,0-3.3,0.9-3.3,2.7c0,1.7,1.3,2.1,2.7,2.5c0.7,0.2,2.1,0.4,2.1,1.4c0,0.8-0.9,1.1-1.8,1.1
		c-1,0-1.6-0.5-2.1-1l-1.3,1c0.9,1.2,1.9,1.6,3.4,1.6c1.7,0,3.6-0.8,3.6-2.8C155.4,435.4,154.3,434.9,152.8,434.5z"/>
</g>
</svg>
